<svg width="31" height="15" viewBox="0 0 31 15" fill="none" xmlns="http://www.w3.org/2000/svg">
<g clip-path="url(#clip0)">
<path d="M20.8984 10.3356C20.741 9.73162 20.5187 9.0426 20.6569 8.96841C21.5512 8.47084 22.4914 8.06086 23.4645 7.74417C15.8264 7.8776 8.19543 8.05751 0.614263 8.23167C0.468483 8.25742 0.276023 5.74192 0.172999 5.73371C8.50504 5.52645 16.8945 5.35678 25.2338 5.19599C24.3832 4.66469 23.493 4.19116 22.6436 3.66066C22.4728 3.54457 22.4522 2.57716 22.4188 2.38804C22.3854 2.19892 22.3647 1.23053 22.193 1.1156L27.2692 4.15487C27.7215 4.41524 28.1762 4.72394 28.6266 4.98466C28.9124 5.17693 29.3357 5.29616 29.501 5.657C29.6931 6.31748 29.8131 6.99682 29.859 7.68314L29.9421 8.15397C29.9338 8.10669 29.8855 8.11522 29.8765 8.064C29.8363 8.41137 29.6013 8.50163 29.0792 8.69137C28.1836 9.04358 27.2631 9.25495 26.3509 9.51359C24.7086 9.88074 23.115 10.4394 21.6029 11.1781C21.6041 11.1845 21.6041 11.191 21.6028 11.1974C21.6014 11.2037 21.5988 11.2097 21.5951 11.215C21.5914 11.2203 21.5867 11.2248 21.5812 11.2282C21.5757 11.2317 21.5695 11.2339 21.5631 11.2349C21.4247 11.3081 21.2387 11.3938 21.0955 11.4628L20.8984 10.3356Z" fill="#007189"/>
</g>
<defs>
<clipPath id="clip0">
<rect width="30.296" height="14.884" fill="white"/>
</clipPath>
</defs>
</svg>
